<svg width="330" height="66" viewBox="0 0 330 66" fill="none" xmlns="http://www.w3.org/2000/svg">
<path d="M216.527 45.9473H89.6575V48.1954H216.527V45.9473Z" fill="#FFF900"/>
<path d="M216.527 43.6982H89.6575V45.9464H216.527V43.6982Z" fill="#0084DD"/>
<path d="M326.407 49.0623C325.913 49.0623 325.458 48.981 325.042 48.8182C324.626 48.6555 324.264 48.4294 323.957 48.1401C323.649 47.8448 323.411 47.5012 323.243 47.1094C323.074 46.7116 322.99 46.2777 322.99 45.8075C322.99 45.3374 323.074 44.9064 323.243 44.5147C323.411 44.1168 323.649 43.7733 323.957 43.484C324.264 43.1886 324.626 42.9596 325.042 42.7968C325.458 42.6341 325.91 42.5527 326.398 42.5527C326.892 42.5527 327.344 42.6341 327.754 42.7968C328.17 42.9596 328.532 43.1886 328.839 43.484C329.146 43.7733 329.385 44.1168 329.553 44.5147C329.722 44.9064 329.806 45.3374 329.806 45.8075C329.806 46.2777 329.722 46.7116 329.553 47.1094C329.385 47.5073 329.146 47.8508 328.839 48.1401C328.532 48.4294 328.17 48.6555 327.754 48.8182C327.344 48.981 326.895 49.0623 326.407 49.0623ZM326.398 48.0316C326.717 48.0316 327.013 47.9774 327.284 47.8689C327.555 47.7604 327.79 47.6067 327.989 47.4078C328.188 47.2029 328.342 46.9678 328.45 46.7026C328.565 46.4314 328.622 46.133 328.622 45.8075C328.622 45.482 328.565 45.1867 328.45 44.9215C328.342 44.6503 328.188 44.4152 327.989 44.2163C327.79 44.0114 327.555 43.8547 327.284 43.7462C327.013 43.6377 326.717 43.5834 326.398 43.5834C326.079 43.5834 325.783 43.6377 325.512 43.7462C325.247 43.8547 325.012 44.0114 324.807 44.2163C324.608 44.4152 324.451 44.6503 324.337 44.9215C324.228 45.1867 324.174 45.482 324.174 45.8075C324.174 46.127 324.228 46.4223 324.337 46.6936C324.451 46.9648 324.608 47.2029 324.807 47.4078C325.006 47.6067 325.241 47.7604 325.512 47.8689C325.783 47.9774 326.079 48.0316 326.398 48.0316Z" fill="white"/>
<path d="M310.8 48.9722L313.648 42.6434H314.805L317.662 48.9722H316.432L313.982 43.2673H314.452L312.011 48.9722H310.8ZM312.111 47.5075L312.427 46.5854H315.845L316.161 47.5075H312.111ZM314.941 42.1733C314.778 42.1733 314.633 42.1401 314.507 42.0738C314.38 42.0075 314.265 41.9352 314.163 41.8569C314.067 41.7725 313.97 41.6971 313.874 41.6308C313.777 41.5645 313.681 41.5314 313.584 41.5314C313.452 41.5314 313.346 41.5886 313.268 41.7032C313.19 41.8177 313.147 41.9533 313.141 42.11H312.481C312.487 41.7423 312.581 41.438 312.762 41.1969C312.948 40.9497 313.199 40.8262 313.512 40.8262C313.681 40.8262 313.828 40.8593 313.955 40.9256C314.082 40.9859 314.193 41.0582 314.29 41.1426C314.392 41.227 314.491 41.3023 314.588 41.3686C314.684 41.4289 314.781 41.459 314.877 41.459C315.01 41.459 315.112 41.4048 315.185 41.2963C315.263 41.1818 315.305 41.0492 315.311 40.8985H315.953C315.947 41.2601 315.854 41.5645 315.673 41.8117C315.498 42.0527 315.254 42.1733 314.941 42.1733Z" fill="white"/>
<path d="M303.204 49.0623C302.722 49.0623 302.273 48.984 301.857 48.8273C301.447 48.6645 301.089 48.4385 300.781 48.1492C300.48 47.8538 300.245 47.5073 300.076 47.1094C299.907 46.7116 299.823 46.2777 299.823 45.8075C299.823 45.3374 299.907 44.9034 300.076 44.5056C300.245 44.1078 300.483 43.7642 300.79 43.4749C301.098 43.1796 301.456 42.9536 301.866 42.7968C302.276 42.6341 302.725 42.5527 303.213 42.5527C303.732 42.5527 304.205 42.6431 304.633 42.824C305.061 42.9988 305.422 43.261 305.718 43.6105L304.958 44.3248C304.729 44.0777 304.473 43.8938 304.19 43.7733C303.906 43.6467 303.599 43.5834 303.267 43.5834C302.936 43.5834 302.632 43.6377 302.354 43.7462C302.083 43.8547 301.845 44.0084 301.64 44.2073C301.441 44.4062 301.284 44.6412 301.17 44.9125C301.061 45.1837 301.007 45.482 301.007 45.8075C301.007 46.133 301.061 46.4314 301.17 46.7026C301.284 46.9738 301.441 47.2089 301.64 47.4078C301.845 47.6067 302.083 47.7604 302.354 47.8689C302.632 47.9774 302.936 48.0316 303.267 48.0316C303.599 48.0316 303.906 47.9714 304.19 47.8508C304.473 47.7242 304.729 47.5344 304.958 47.2812L305.718 48.0045C305.422 48.3481 305.061 48.6103 304.633 48.7911C304.205 48.9719 303.729 49.0623 303.204 49.0623ZM302.888 51.0333C302.725 51.0333 302.574 51.0152 302.436 50.979C302.297 50.9489 302.17 50.9037 302.056 50.8434L302.264 50.31C302.36 50.3582 302.457 50.3944 302.553 50.4185C302.656 50.4426 302.764 50.4547 302.879 50.4547C303.053 50.4547 303.177 50.4245 303.249 50.3642C303.322 50.304 303.358 50.2256 303.358 50.1292C303.358 50.0388 303.319 49.9664 303.24 49.9122C303.168 49.8579 303.047 49.8308 302.879 49.8308H302.598L302.842 48.9086H303.457L303.331 49.4149C303.596 49.4451 303.792 49.5294 303.918 49.6681C304.051 49.8127 304.117 49.9815 304.117 50.1744C304.117 50.4396 304.006 50.6475 303.783 50.7982C303.56 50.9549 303.261 51.0333 302.888 51.0333Z" fill="white"/>
<path d="M287.633 48.9723L290.481 42.6436H291.638L294.495 48.9723H293.266L290.815 43.2674H291.286L288.844 48.9723H287.633ZM288.944 47.5077L289.26 46.5855H292.678L292.994 47.5077H288.944Z" fill="white"/>
<path d="M276.991 48.9723V48.1857L281.077 43.1951L281.213 43.6381H277.054V42.6436H282.271V43.4301L278.184 48.4208L278.04 47.9778H282.388V48.9723H276.991Z" fill="white"/>
<path d="M269.52 48.9723V42.6436H270.695V48.9723H269.52Z" fill="white"/>
<path d="M256.988 48.9723V42.6436H259.754C260.441 42.6436 261.044 42.7762 261.562 43.0414C262.081 43.3066 262.485 43.6742 262.774 44.1444C263.063 44.6145 263.208 45.169 263.208 45.8079C263.208 46.4408 263.063 46.9953 262.774 47.4715C262.485 47.9416 262.081 48.3093 261.562 48.5745C261.044 48.8397 260.441 48.9723 259.754 48.9723H256.988ZM258.163 47.9778H259.7C260.17 47.9778 260.58 47.8874 260.929 47.7066C261.279 47.5257 261.547 47.2726 261.734 46.9471C261.927 46.6216 262.023 46.2419 262.023 45.8079C262.023 45.3679 261.927 44.9882 261.734 44.6688C261.547 44.3433 261.279 44.0901 260.929 43.9093C260.58 43.7285 260.17 43.6381 259.7 43.6381H258.163V47.9778Z" fill="white"/>
<path d="M247.279 49.0623C246.785 49.0623 246.33 48.981 245.914 48.8182C245.498 48.6555 245.136 48.4294 244.829 48.1401C244.521 47.8448 244.283 47.5012 244.115 47.1094C243.946 46.7116 243.861 46.2777 243.861 45.8075C243.861 45.3374 243.946 44.9064 244.115 44.5147C244.283 44.1168 244.521 43.7733 244.829 43.484C245.136 43.1886 245.498 42.9596 245.914 42.7968C246.33 42.6341 246.782 42.5527 247.27 42.5527C247.764 42.5527 248.216 42.6341 248.626 42.7968C249.042 42.9596 249.404 43.1886 249.711 43.484C250.018 43.7733 250.257 44.1168 250.425 44.5147C250.594 44.9064 250.678 45.3374 250.678 45.8075C250.678 46.2777 250.594 46.7116 250.425 47.1094C250.257 47.5073 250.018 47.8508 249.711 48.1401C249.404 48.4294 249.042 48.6555 248.626 48.8182C248.216 48.981 247.767 49.0623 247.279 49.0623ZM247.27 48.0316C247.589 48.0316 247.885 47.9774 248.156 47.8689C248.427 47.7604 248.662 47.6067 248.861 47.4078C249.06 47.2029 249.214 46.9678 249.322 46.7026C249.437 46.4314 249.494 46.133 249.494 45.8075C249.494 45.482 249.437 45.1867 249.322 44.9215C249.214 44.6503 249.06 44.4152 248.861 44.2163C248.662 44.0114 248.427 43.8547 248.156 43.7462C247.885 43.6377 247.589 43.5834 247.27 43.5834C246.95 43.5834 246.655 43.6377 246.384 43.7462C246.119 43.8547 245.884 44.0114 245.679 44.2163C245.48 44.4152 245.323 44.6503 245.209 44.9215C245.1 45.1867 245.046 45.482 245.046 45.8075C245.046 46.127 245.1 46.4223 245.209 46.6936C245.323 46.9648 245.48 47.2029 245.679 47.4078C245.878 47.6067 246.113 47.7604 246.384 47.8689C246.655 47.9774 246.95 48.0316 247.27 48.0316Z" fill="white"/>
<path d="M231.931 48.9723V42.6436H232.898L236.867 47.5167H236.388V42.6436H237.555V48.9723H236.587L232.618 44.0992H233.097V48.9723H231.931Z" fill="white"/>
<path d="M219.201 48.9723L222.049 42.6436H223.206L226.063 48.9723H224.834L222.384 43.2674H222.854L220.413 48.9723H219.201ZM220.512 47.5077L220.829 46.5855H224.246L224.563 47.5077H220.512Z" fill="white"/>
<path d="M316.49 24.7321L330 39.089H321.005L311.093 28.8592L305.378 33.6214V39.089H298.252V14.3965H305.378V25.4023H305.554L318.994 14.3965H328.765L316.49 24.7321Z" fill="white"/>
<path d="M282.85 14.3965L294.808 39.089H287.154L285.037 34.5738H270.61L268.458 39.089H260.803L272.762 14.3965H282.85ZM272.62 29.988H282.991L277.912 19.3703H277.7L272.62 29.988Z" fill="white"/>
<path d="M258.329 34.3269C258.682 37.0078 258.647 38.1013 259.458 39.089H251.945C251.31 38.0307 251.204 36.6197 250.957 34.3269C250.604 31.3285 248.593 30.6583 244.255 30.6583H235.965V39.089H228.839V14.3965H245.63C254.696 14.3965 258.365 17.0774 258.365 21.7337C258.365 24.6615 256.707 26.8133 253.356 28.0126V28.2243C257.024 28.824 257.836 30.7288 258.329 34.3269ZM245.63 26.2136C249.017 26.2136 251.239 25.0848 251.239 22.6861C251.239 20.3227 249.017 19.2644 245.63 19.2644H235.965V26.2136H245.63Z" fill="white"/>
<path d="M207.955 34.574C213.423 34.574 216.844 31.8931 216.844 26.7429C216.844 21.5928 213.423 18.9119 207.955 18.9119C202.452 18.9119 199.03 21.5928 199.03 26.7429C199.03 31.8931 202.452 34.574 207.955 34.574ZM207.955 14.0439C218.361 14.0439 223.899 19.0177 223.899 26.7429C223.899 34.4682 218.361 39.442 207.955 39.442C197.549 39.442 192.011 34.4682 192.011 26.7429C192.011 19.0177 197.549 14.0439 207.955 14.0439Z" fill="white"/>
<path d="M157.738 14.3965H173.118C183.313 14.3965 188.71 19.1586 188.71 26.7427C188.71 34.3269 183.313 39.089 173.118 39.089H157.738V14.3965ZM181.514 26.7427C181.514 21.7337 178.127 19.2644 172.766 19.2644H164.864V34.221H172.766C178.127 34.221 181.514 31.7165 181.514 26.7427Z" fill="white"/>
<path d="M140.685 39.089H133.56V30.3055L120.049 14.3965H127.986L137.052 25.0143H137.228L146.294 14.3965H154.196L140.685 30.3408V39.089Z" fill="white"/>
<path d="M105.598 23.6387C114.488 24.2737 120.026 25.4025 120.026 31.2934C120.026 36.5494 115.052 39.442 105.316 39.442C99.9897 39.442 93.2522 38.031 89.6189 36.8316V31.3993C92.194 32.5281 99.2842 34.4682 104.434 34.4682C109.867 34.4682 112.759 33.6216 112.759 31.9284C112.759 30.0235 110.078 29.6355 104.258 29.2122C96.18 28.6125 89.8305 27.6954 89.8305 21.6986C89.8305 15.8077 96.6739 14.0439 104.964 14.0439C111.489 14.0439 117.204 15.6666 117.945 15.9488V21.1695C116.957 20.7462 111.489 18.9472 104.928 18.9472C100.695 18.9472 97.2383 19.5116 97.2383 21.24C97.2383 23.0391 100.413 23.2507 105.598 23.6387Z" fill="white"/>
<mask id="mask0_24110_1043" style="mask-type:luminance" maskUnits="userSpaceOnUse" x="0" y="1" width="43" height="39">
<path d="M42.3145 1.82034C42.3145 1.82034 36.6193 0.928406 34.7712 5.33444C33.2088 9.05936 33.8283 21.1497 33.8283 21.1497L3.49929 39.5108C2.16639 40.3177 0.463516 39.358 0.463516 37.7999V25.2938C0.463516 25.2938 0.100491 21.7248 4.59816 17.809C9.09583 13.8933 24.3992 4.08698 24.3992 4.08698C24.3992 4.08698 28.8026 0.0888672 42.3145 1.82034Z" fill="white"/>
</mask>
<g mask="url(#mask0_24110_1043)">
<rect x="0.456177" y="1.38574" width="42.4308" height="40.0176" fill="url(#paint0_linear_24110_1043)"/>
</g>
<path d="M71.7652 22.9004H55.0204C43.9747 22.9004 27.3446 27.492 17.8761 33.1561L6.1473 40.1723C3.78017 41.5884 4.09981 42.7363 6.86123 42.7363H23.606C34.6517 42.7363 51.2818 38.1446 60.7503 32.4805L72.4791 25.4643C74.8462 24.0483 74.5266 22.9004 71.7652 22.9004Z" fill="#F1DC2E"/>
<path d="M71.7652 22.9004H55.0204C43.9747 22.9004 27.3446 27.492 17.8761 33.1561L6.1473 40.1723C3.78017 41.5884 4.09981 42.7363 6.86123 42.7363H23.606C34.6517 42.7363 51.2818 38.1446 60.7503 32.4805L72.4791 25.4643C74.8462 24.0483 74.5266 22.9004 71.7652 22.9004Z" fill="url(#paint1_linear_24110_1043)"/>
<path fill-rule="evenodd" clip-rule="evenodd" d="M76.547 1.38477C76.8661 1.38477 77.1463 1.60058 77.2306 1.91119C77.3156 2.22181 77.1813 2.55114 76.9083 2.71206C70.2513 6.63657 50.8453 18.077 46.2493 20.7865C45.606 21.1657 44.8717 21.3666 44.1232 21.3666C37.2301 21.3666 1.47079 21.3666 1.47079 21.3666L35.3652 1.38477H76.547Z" fill="url(#paint2_linear_24110_1043)"/>
<mask id="mask1_24110_1043" style="mask-type:luminance" maskUnits="userSpaceOnUse" x="3" y="45" width="69" height="20">
<path d="M69.823 45.0459C70.6085 45.0459 71.2993 45.5779 71.512 46.3415C71.7226 47.1063 71.4001 47.9145 70.7257 48.3126C61.3911 53.8231 43.5271 64.3688 43.5271 64.3688H5.45628C2.69486 64.3688 2.37993 63.2332 4.75287 61.8324L28.892 47.5823C31.2649 46.1815 35.4272 45.0459 38.1886 45.0459H69.823Z" fill="white"/>
</mask>
<g mask="url(#mask1_24110_1043)">
<rect width="71.4643" height="52.1277" transform="matrix(1 0 0.00378822 0.383843 0.456055 45.0469)" fill="url(#paint3_linear_24110_1043)"/>
</g>
<path fill-rule="evenodd" clip-rule="evenodd" d="M35.4147 63.9336C35.4147 63.9336 41.1098 64.8255 42.9579 60.4195C43.3347 59.5212 43.5846 58.1364 43.7469 56.5521C44.4972 49.2273 47.83 42.2255 54.1287 38.4122L75.7477 25.3242C76.4142 24.9207 77.2656 25.4006 77.2656 26.1796V40.4601C77.2656 40.4601 77.6286 44.0291 73.131 47.9449C68.6333 51.8606 53.3299 61.6669 53.3299 61.6669C53.3299 61.6669 48.9265 65.665 35.4147 63.9336Z" fill="url(#paint4_linear_24110_1043)"/>
<defs>
<linearGradient id="paint0_linear_24110_1043" x1="12.3957" y1="34.1473" x2="6.04371" y2="21.4497" gradientUnits="userSpaceOnUse">
<stop stop-color="#022655"/>
<stop offset="0.483126" stop-color="#02306D"/>
<stop offset="1" stop-color="#08418B"/>
</linearGradient>
<linearGradient id="paint1_linear_24110_1043" x1="18.4408" y1="32.8183" x2="27.7873" y2="48.4426" gradientUnits="userSpaceOnUse">
<stop stop-color="#C59D1D"/>
<stop offset="0.536518" stop-color="#EEC00D"/>
<stop offset="1" stop-color="#FCE16C"/>
</linearGradient>
<linearGradient id="paint2_linear_24110_1043" x1="77.4884" y1="2.18117" x2="64.0231" y2="-19.0746" gradientUnits="userSpaceOnUse">
<stop stop-color="#78B5E3"/>
<stop offset="0.567559" stop-color="#0E55A9"/>
<stop offset="1" stop-color="#08418B"/>
</linearGradient>
<linearGradient id="paint3_linear_24110_1043" x1="39.68" y1="55.1841" x2="22.8616" y2="53.2283" gradientUnits="userSpaceOnUse">
<stop stop-color="#042045"/>
<stop offset="0.567559" stop-color="#073672"/>
<stop offset="1" stop-color="#08418B"/>
</linearGradient>
<linearGradient id="paint4_linear_24110_1043" x1="75.8297" y1="25.8379" x2="36.4533" y2="48.7447" gradientUnits="userSpaceOnUse">
<stop stop-color="#78B5E3"/>
<stop offset="0.567559" stop-color="#0E55A9"/>
<stop offset="1" stop-color="#08418B"/>
</linearGradient>
</defs>
</svg>
