<svg width="388" height="87" viewBox="0 0 388 87" fill="none" xmlns="http://www.w3.org/2000/svg">
<g clip-path="url(#clip0_24439_1279)">
<mask id="mask0_24439_1279" style="mask-type:luminance" maskUnits="userSpaceOnUse" x="0" y="1" width="52" height="53">
<path d="M51.1571 2.41603C51.1571 2.41603 44.2718 1.23219 42.0375 7.0802C40.1486 12.0242 40.8976 28.0714 40.8976 28.0714L3.66753 52.8158C2.33824 53.6993 0.560474 52.7463 0.560474 51.1501V33.5717C0.560474 33.5717 0.121586 28.8347 5.55914 23.6374C10.9967 18.4401 29.4981 5.42448 29.4981 5.42448C29.4981 5.42448 34.8216 0.117893 51.1571 2.41603Z" fill="white"/>
</mask>
<g mask="url(#mask0_24439_1279)">
<rect x="0.551514" y="1.83887" width="51.2977" height="53.1143" fill="url(#paint0_linear_24439_1279)"/>
</g>
<path d="M87.807 30.3945H61.7515C50.7058 30.3945 34.385 35.3043 25.2981 41.3607L6.36356 53.9806C4.09183 55.4947 4.4888 56.7221 7.25022 56.7221H33.3058C44.3515 56.7221 60.6722 51.8124 69.7591 45.756L88.6937 33.1361C90.9654 31.622 90.5684 30.3945 87.807 30.3945Z" fill="#F1DC2E"/>
<path d="M87.807 30.3945H61.7515C50.7058 30.3945 34.385 35.3043 25.2981 41.3607L6.36356 53.9806C4.09183 55.4947 4.4888 56.7221 7.25022 56.7221H33.3058C44.3515 56.7221 60.6722 51.8124 69.7591 45.756L88.6937 33.1361C90.9654 31.622 90.5684 30.3945 87.807 30.3945Z" fill="url(#paint1_linear_24439_1279)"/>
<path fill-rule="evenodd" clip-rule="evenodd" d="M92.5078 1.83789C92.898 1.83789 93.2519 2.12433 93.3713 2.5366C93.4916 2.94888 93.3449 3.38599 93.0197 3.59958C85.0883 8.80847 61.9673 23.9931 56.4914 27.5893C55.725 28.0927 54.8379 28.3592 53.9228 28.3592C45.4957 28.3592 1.77826 28.3592 1.77826 28.3592L42.1613 1.83789H92.5078Z" fill="url(#paint2_linear_24439_1279)"/>
<mask id="mask1_24439_1279" style="mask-type:luminance" maskUnits="userSpaceOnUse" x="3" y="59" width="84" height="27">
<path d="M84.2497 59.7881C85.2194 59.7881 86.1256 60.4942 86.4647 61.5077C86.8015 62.5228 86.4843 63.5956 85.6917 64.1239C74.7205 71.4379 53.7244 85.4349 53.7244 85.4349H5.55178C2.79035 85.4349 2.37414 84.22 4.62213 82.7214L34.9527 62.5016C37.2007 61.003 41.2616 59.7881 44.0231 59.7881H84.2497Z" fill="white"/>
</mask>
<g mask="url(#mask1_24439_1279)">
<rect width="84.3154" height="64.5923" transform="matrix(1 0 0.035945 0.411151 0.551514 59.7891)" fill="url(#paint3_linear_24439_1279)"/>
</g>
<path fill-rule="evenodd" clip-rule="evenodd" d="M42.8156 84.8574C42.8156 84.8574 49.7008 86.0412 51.9351 80.1932C52.6999 78.1914 53.0323 74.3694 53.157 70.5293C53.3852 63.5044 56.6574 56.8211 62.511 52.9306L91.8587 33.4251C92.5233 32.9834 93.4122 33.4599 93.4122 34.2579V53.7017C93.4122 53.7017 93.8511 58.4387 88.4135 63.636C82.976 68.8333 64.4746 81.849 64.4746 81.849C64.4746 81.849 59.151 87.1555 42.8156 84.8574Z" fill="url(#paint4_linear_24439_1279)"/>
</g>
<path d="M307.415 64.3885C306.819 64.3885 306.27 64.2807 305.768 64.0651C305.266 63.8495 304.829 63.5501 304.459 63.1668C304.088 62.7755 303.8 62.3204 303.597 61.8014C303.393 61.2743 303.291 60.6994 303.291 60.0766C303.291 59.4537 303.393 58.8828 303.597 58.3638C303.8 57.8368 304.088 57.3816 304.459 56.9983C304.829 56.6071 305.266 56.3036 305.768 56.088C306.27 55.8724 306.815 55.7646 307.404 55.7646C308.001 55.7646 308.546 55.8724 309.041 56.088C309.543 56.3036 309.979 56.6071 310.35 56.9983C310.721 57.3816 311.008 57.8368 311.212 58.3638C311.415 58.8828 311.517 59.4537 311.517 60.0766C311.517 60.6994 311.415 61.2743 311.212 61.8014C311.008 62.3284 310.721 62.7835 310.35 63.1668C309.979 63.5501 309.543 63.8495 309.041 64.0651C308.546 64.2807 308.004 64.3885 307.415 64.3885ZM307.404 63.0231C307.79 63.0231 308.146 62.9512 308.473 62.8075C308.801 62.6637 309.084 62.4601 309.324 62.1966C309.564 61.9251 309.75 61.6137 309.881 61.2624C310.019 60.903 310.088 60.5078 310.088 60.0766C310.088 59.6454 310.019 59.2541 309.881 58.9028C309.75 58.5435 309.564 58.232 309.324 57.9685C309.084 57.697 308.801 57.4894 308.473 57.3457C308.146 57.202 307.79 57.1301 307.404 57.1301C307.019 57.1301 306.662 57.202 306.335 57.3457C306.015 57.4894 305.731 57.697 305.484 57.9685C305.244 58.232 305.055 58.5435 304.917 58.9028C304.786 59.2541 304.72 59.6454 304.72 60.0766C304.72 60.4998 304.786 60.8911 304.917 61.2504C305.055 61.6097 305.244 61.9251 305.484 62.1966C305.724 62.4601 306.008 62.6637 306.335 62.8075C306.662 62.9512 307.019 63.0231 307.404 63.0231Z" fill="white"/>
<path d="M288.581 64.2684L292.018 55.8841H293.415L296.862 64.2684H295.378L292.422 56.7105H292.989L290.043 64.2684H288.581ZM290.163 62.328L290.545 61.1063H294.669L295.051 62.328H290.163ZM293.578 55.2612C293.382 55.2612 293.207 55.2173 293.055 55.1295C292.902 55.0416 292.764 54.9458 292.64 54.842C292.524 54.7302 292.407 54.6304 292.291 54.5426C292.174 54.4547 292.058 54.4108 291.942 54.4108C291.782 54.4108 291.654 54.4867 291.56 54.6384C291.465 54.7901 291.414 54.9698 291.407 55.1774H290.611C290.618 54.6903 290.731 54.287 290.949 53.9676C291.174 53.6403 291.476 53.4766 291.854 53.4766C292.058 53.4766 292.236 53.5205 292.389 53.6083C292.542 53.6882 292.676 53.784 292.793 53.8958C292.916 54.0076 293.036 54.1074 293.153 54.1952C293.269 54.2751 293.385 54.315 293.502 54.315C293.662 54.315 293.786 54.2431 293.873 54.0994C293.967 53.9477 294.018 53.772 294.026 53.5724H294.8C294.793 54.0515 294.68 54.4547 294.462 54.7821C294.251 55.1015 293.956 55.2612 293.578 55.2612Z" fill="white"/>
<path d="M279.416 64.3885C278.834 64.3885 278.292 64.2847 277.79 64.0771C277.296 63.8615 276.863 63.5621 276.492 63.1788C276.128 62.7875 275.845 62.3284 275.641 61.8014C275.438 61.2743 275.336 60.6994 275.336 60.0766C275.336 59.4537 275.438 58.8788 275.641 58.3518C275.845 57.8248 276.132 57.3696 276.503 56.9864C276.874 56.5951 277.307 56.2957 277.801 56.088C278.296 55.8724 278.838 55.7646 279.427 55.7646C280.052 55.7646 280.623 55.8844 281.14 56.124C281.656 56.3555 282.093 56.7029 282.449 57.166L281.533 58.1123C281.256 57.7849 280.947 57.5413 280.605 57.3816C280.263 57.2139 279.892 57.1301 279.492 57.1301C279.092 57.1301 278.725 57.202 278.391 57.3457C278.063 57.4894 277.776 57.693 277.529 57.9565C277.289 58.2201 277.099 58.5315 276.961 58.8908C276.83 59.2501 276.765 59.6454 276.765 60.0766C276.765 60.5078 276.83 60.903 276.961 61.2624C277.099 61.6217 277.289 61.9331 277.529 62.1966C277.776 62.4601 278.063 62.6637 278.391 62.8075C278.725 62.9512 279.092 63.0231 279.492 63.0231C279.892 63.0231 280.263 62.9432 280.605 62.7835C280.947 62.6158 281.256 62.3643 281.533 62.0289L282.449 62.9871C282.093 63.4423 281.656 63.7896 281.14 64.0292C280.623 64.2687 280.049 64.3885 279.416 64.3885ZM279.034 66.9996C278.838 66.9996 278.656 66.9757 278.489 66.9278C278.321 66.8878 278.169 66.828 278.03 66.7481L278.281 66.0414C278.398 66.1053 278.514 66.1532 278.631 66.1852C278.754 66.2171 278.885 66.2331 279.023 66.2331C279.234 66.2331 279.383 66.1931 279.471 66.1133C279.558 66.0334 279.602 65.9296 279.602 65.8019C279.602 65.6821 279.554 65.5863 279.46 65.5144C279.372 65.4425 279.227 65.4066 279.023 65.4066H278.685L278.98 64.1849H279.722L279.569 64.8556C279.889 64.8956 280.125 65.0074 280.278 65.191C280.438 65.3827 280.518 65.6062 280.518 65.8618C280.518 66.2131 280.383 66.4886 280.114 66.6882C279.845 66.8958 279.485 66.9996 279.034 66.9996Z" fill="white"/>
<path d="M260.625 64.2681L264.062 55.8838H265.459L268.906 64.2681H267.422L264.466 56.7102H265.033L262.087 64.2681H260.625ZM262.207 62.3277L262.589 61.106H266.713L267.095 62.3277H262.207Z" fill="white"/>
<path d="M247.784 64.2681V63.2261L252.716 56.6144L252.879 57.2013H247.861V55.8838H254.156V56.9258L249.224 63.5375L249.05 62.9506H254.297V64.2681H247.784Z" fill="white"/>
<path d="M238.769 64.2681V55.8838H240.187V64.2681H238.769Z" fill="white"/>
<path d="M223.646 64.2681V55.8838H226.984C227.813 55.8838 228.541 56.0595 229.166 56.4108C229.792 56.7621 230.279 57.2492 230.628 57.8721C230.977 58.4949 231.152 59.2295 231.152 60.0759C231.152 60.9144 230.977 61.649 230.628 62.2798C230.279 62.9027 229.792 63.3898 229.166 63.7411C228.541 64.0924 227.813 64.2681 226.984 64.2681H223.646ZM225.064 62.9506H226.919C227.486 62.9506 227.981 62.8308 228.402 62.5912C228.824 62.3517 229.148 62.0163 229.373 61.5851C229.606 61.1539 229.723 60.6509 229.723 60.0759C229.723 59.493 229.606 58.99 229.373 58.5668C229.148 58.1356 228.824 57.8002 228.402 57.5607C227.981 57.3211 227.486 57.2013 226.919 57.2013H225.064V62.9506Z" fill="white"/>
<path d="M211.93 64.3885C211.334 64.3885 210.785 64.2807 210.283 64.0651C209.781 63.8495 209.345 63.5501 208.974 63.1668C208.603 62.7755 208.316 62.3204 208.112 61.8014C207.908 61.2743 207.806 60.6994 207.806 60.0766C207.806 59.4537 207.908 58.8828 208.112 58.3638C208.316 57.8368 208.603 57.3816 208.974 56.9983C209.345 56.6071 209.781 56.3036 210.283 56.088C210.785 55.8724 211.33 55.7646 211.919 55.7646C212.516 55.7646 213.061 55.8724 213.556 56.088C214.058 56.3036 214.494 56.6071 214.865 56.9983C215.236 57.3816 215.523 57.8368 215.727 58.3638C215.931 58.8828 216.033 59.4537 216.033 60.0766C216.033 60.6994 215.931 61.2743 215.727 61.8014C215.523 62.3284 215.236 62.7835 214.865 63.1668C214.494 63.5501 214.058 63.8495 213.556 64.0651C213.061 64.2807 212.52 64.3885 211.93 64.3885ZM211.919 63.0231C212.305 63.0231 212.661 62.9512 212.989 62.8075C213.316 62.6637 213.6 62.4601 213.84 62.1966C214.08 61.9251 214.265 61.6137 214.396 61.2624C214.534 60.903 214.603 60.5078 214.603 60.0766C214.603 59.6454 214.534 59.2541 214.396 58.9028C214.265 58.5435 214.08 58.232 213.84 57.9685C213.6 57.697 213.316 57.4894 212.989 57.3457C212.661 57.202 212.305 57.1301 211.919 57.1301C211.534 57.1301 211.178 57.202 210.85 57.3457C210.53 57.4894 210.247 57.697 209.999 57.9685C209.759 58.232 209.57 58.5435 209.432 58.9028C209.301 59.2541 209.236 59.6454 209.236 60.0766C209.236 60.4998 209.301 60.8911 209.432 61.2504C209.57 61.6097 209.759 61.9251 209.999 62.1966C210.239 62.4601 210.523 62.6637 210.85 62.8075C211.178 62.9512 211.534 63.0231 211.919 63.0231Z" fill="white"/>
<path d="M193.41 64.2681V55.8838H194.577L199.366 62.3397H198.788V55.8838H200.196V64.2681H199.028L194.239 57.8122H194.817V64.2681H193.41Z" fill="white"/>
<path d="M178.048 64.2681L181.485 55.8838H182.881L186.329 64.2681H184.845L181.888 56.7102H182.456L179.51 64.2681H178.048ZM179.63 62.3277L180.012 61.106H184.136L184.518 62.3277H179.63Z" fill="white"/>
<path d="M163.046 59H108.394V62H163.046V59Z" fill="#FFF900"/>
<path d="M163.046 59H108.394V62H163.046V59Z" fill="url(#paint5_linear_24439_1279)"/>
<path d="M380.744 59H326.091V62H380.744V59Z" fill="#FFF900"/>
<path d="M380.744 59H326.091V62H380.744V59Z" fill="url(#paint6_linear_24439_1279)"/>
<path d="M234.376 18.7729C235.425 18.4781 241.147 18.7296 242.592 18.7344C249.761 18.7584 260.143 16.9058 259.783 28.7158C259.649 33.1327 260.271 39.9489 259.516 44.1149C259.269 45.5313 258.731 46.8644 257.942 48.008C256.735 49.7502 254.703 51.1035 252.746 51.3825C252.665 51.3983 252.585 51.4121 252.504 51.4239C250.717 51.686 245.902 51.4849 243.854 51.5032C240.494 51.285 236.716 51.8938 233.402 51.3422C225.841 50.0838 227.264 41.5255 227.251 35.5886C227.235 28.3935 225.681 19.9658 234.376 18.7729ZM234.217 42.3238C234.805 43.3649 235.23 43.7185 236.163 44.3789C237.004 44.4275 237.904 44.4988 238.741 44.4813C242.029 44.4953 247.373 44.7183 250.433 44.5166C251.19 43.9899 252.333 43.2232 252.39 42.1911C252.588 38.6139 252.826 31.0425 252.584 27.7297C251.331 25.4637 250.079 25.6967 247.9 25.8373C245.642 25.8626 243.382 25.8691 241.123 25.8567C234.137 25.7881 234.198 25.5022 234.186 33.29C234.177 36.1418 234.182 38.9935 234.201 41.845C234.204 42.0047 234.209 42.1644 234.217 42.3238Z" fill="white"/>
<path d="M267.724 18.7892C268.458 18.7357 269.276 18.7568 270.012 18.7505C277.265 18.6891 284.672 18.5667 291.91 18.7184C295.362 18.7908 298.557 21.5876 299.014 25.414C299.895 32.8198 299.226 41.0688 290.693 40.4913C293.669 44.1087 297.264 47.7068 299.864 51.6557C298.759 51.5101 297.768 51.5415 296.659 51.5527C294.741 51.612 292.742 51.5498 290.817 51.5202C288.144 48.8329 285.046 43.4491 282.436 40.5807C280.9 40.584 279.364 40.5785 277.827 40.5641C277.003 39.9046 276.482 39.0187 275.381 38.1707C274.929 40.9976 275.028 48.3382 275.002 51.5018C272.667 51.4338 270.151 51.4848 267.801 51.4873C267.615 44.0687 267.92 36.3115 267.754 28.8476C267.682 25.6947 267.93 21.8721 267.724 18.7892ZM275.245 37.512C276.335 36.1257 277.119 35.3876 278.468 34.2966L289.802 34.3782C292.704 34.103 292.263 30.7218 292.243 28.353C292.237 27.5904 291.931 26.7955 291.463 26.246C290.686 25.7987 289.524 25.7493 288.658 25.76C284.158 25.8155 279.705 25.8639 275.204 25.7296C275.165 29.3651 275.044 33.9505 275.245 37.512Z" fill="white"/>
<path d="M115.476 18.7793C116.214 18.6366 121.919 18.6944 122.944 18.6931L140.444 18.6944C139.483 20.423 138.198 23.7247 137.213 25.7567C131.461 25.6349 125.661 25.8957 119.906 25.8834C119.108 25.8817 117.901 25.7762 117.153 25.8836C115.182 26.1669 115.136 30.6285 116.836 31.3768C117.67 31.6999 119.423 31.6214 120.324 31.6224L128.901 31.5987C133.389 31.584 138.956 31.2421 140.008 37.872C140.964 43.8973 139.842 50.0367 133.575 51.3587C125.463 51.5815 116.103 51.6585 107.992 51.4428C108.612 48.7651 109.312 46.8981 110.237 44.3334C117.106 44.124 124.123 44.5751 131.003 44.3446C132.126 44.3071 132.36 43.8463 133.048 42.9634C133.806 37.8679 131.706 38.3023 128.155 38.3457L120.253 38.3903C117.281 38.4018 113.638 38.7776 111.153 36.6406C108.278 34.1637 108.319 29.3812 108.658 25.6922C109.045 21.4935 112.02 19.2658 115.476 18.7793Z" fill="white"/>
<path d="M186.665 18.7777C187.057 18.7308 187.836 18.7276 188.25 18.7237L204.259 18.7257C207.17 18.723 210.526 18.5667 213.28 18.9447C216.036 19.3229 219.236 22.5855 219.501 25.6985C219.962 31.1209 219.456 36.9173 219.67 42.3554C219.836 46.5588 217.251 50.392 213.568 51.1567C210.938 51.7028 207.035 51.4723 204.308 51.4718L187.877 51.4701L187.912 41.9632C187.909 37.4899 187.742 31.2815 188.004 26.9857C189.777 26.8431 193.214 26.857 194.957 26.9717C194.971 32.829 194.884 38.6521 194.934 44.5174C198.552 44.0934 202.525 44.5596 206.242 44.4076C208.075 44.3328 211.919 45.0707 212.486 41.9613C212.811 40.1817 212.639 37.7574 212.634 35.8856C212.644 34.0667 212.666 32.2478 212.699 30.4292C212.718 28.3304 212.497 26.2369 210.151 25.9968C208.339 25.8112 206.387 25.9107 204.553 25.9151L192.923 25.9245C192.737 25.7518 192.554 25.5757 192.373 25.3963C191.552 24.5757 186.702 19.5119 186.665 18.7777Z" fill="white"/>
<path d="M320.008 18.6813C322.058 18.813 326.469 18.7434 328.506 18.6426C331.087 24.0772 333.572 29.7383 335.943 35.3008C338.218 40.6421 340.877 46.2135 343.047 51.535L335.214 51.5215C334.326 49.515 333.418 47.5202 332.488 45.5372C330.962 45.3863 327.896 45.4885 326.321 45.5068C322.859 45.5382 319.397 45.5904 315.937 45.6636C316.938 44.0404 319.256 40.6777 320.35 39.2183C323.38 39.1243 326.444 39.2382 329.533 39.1269L329.648 39.0718C329.738 38.4922 324.773 26.994 324.142 25.8177C321.395 33.1572 317.996 40.7477 314.688 47.8043C314.096 49.0677 313.617 50.3383 312.902 51.5321L305.337 51.5033C305.911 49.5805 306.864 47.583 307.65 45.7474C310.544 38.9925 313.731 32.4096 316.661 25.6691C317.636 23.4235 318.825 20.7615 320.008 18.6813Z" fill="white"/>
<path d="M370.626 18.6294C373.071 18.7634 377.156 18.5724 379.722 18.5479C378.286 20.3736 376.458 22.1866 374.934 23.9708C371.71 27.7464 368.407 31.3369 365.048 34.9614C367.787 37.5493 371.677 41.9722 374.403 44.8905C375.797 46.361 379.301 50.1393 380.315 51.6982C377.44 51.5714 374.375 51.6508 371.482 51.6757C370.4 50.7514 367.775 47.6922 366.672 46.4688L356.215 34.8008C356.133 40.3753 356.11 45.9507 356.148 51.5258L349.007 51.4802C348.902 47.6185 348.965 43.4024 348.966 39.5229L349.007 18.7138C349.775 18.725 350.719 18.6594 351.501 18.6287C353.06 18.6414 354.559 18.5394 356.124 18.6972C356.226 23.9527 356.002 29.141 356.163 34.626C357.14 33.3711 358.597 31.816 359.664 30.5925C363.25 26.5273 366.903 22.5388 370.626 18.6294Z" fill="white"/>
<path d="M145.25 18.6243C147.052 18.4783 152.27 18.6484 154.137 18.7413C155.14 19.9203 156.097 21.4899 157.067 22.7398C160.848 27.6117 163.869 32.931 167.218 38.1467C167.271 42.6066 167.3 47.0668 167.306 51.5271C164.803 51.4818 162.241 51.5038 159.732 51.495C159.606 50.1453 159.695 48.2066 159.708 46.7885L159.77 38.7263C158.226 36.2257 145.478 19.6994 145.25 18.6243Z" fill="white"/>
<path d="M176.441 18.6419C177.929 18.5356 180.138 18.5825 181.69 18.5625C180.812 20.0655 178.544 23.0618 177.439 24.6132C174.431 28.8106 171.455 33.0354 168.51 37.287C168.181 37.6761 168.215 37.7543 167.794 37.8906C167.141 36.5083 164.897 33.2065 163.914 32.0337C165.076 30.0195 166.691 27.8939 167.991 25.9641C169.619 23.5452 171.315 21.0269 173.069 18.726L176.441 18.6419Z" fill="white"/>
<defs>
<linearGradient id="paint0_linear_24439_1279" x1="14.9861" y1="45.3224" x2="6.09556" y2="29.1344" gradientUnits="userSpaceOnUse">
<stop stop-color="#022655"/>
<stop offset="0.483126" stop-color="#02306D"/>
<stop offset="1" stop-color="#08418B"/>
</linearGradient>
<linearGradient id="paint1_linear_24439_1279" x1="22.0008" y1="43.5583" x2="35.3425" y2="63.5758" gradientUnits="userSpaceOnUse">
<stop stop-color="#C59D1D"/>
<stop offset="0.536518" stop-color="#EEC00D"/>
<stop offset="1" stop-color="#FCE16C"/>
</linearGradient>
<linearGradient id="paint2_linear_24439_1279" x1="93.7008" y1="2.89494" x2="74.5405" y2="-24.2024" gradientUnits="userSpaceOnUse">
<stop stop-color="#78B5E3"/>
<stop offset="0.567559" stop-color="#0E55A9"/>
<stop offset="1" stop-color="#08418B"/>
</linearGradient>
<linearGradient id="paint3_linear_24439_1279" x1="46.8154" y1="68.3795" x2="26.9479" y2="66.1798" gradientUnits="userSpaceOnUse">
<stop stop-color="#042045"/>
<stop offset="0.567559" stop-color="#073672"/>
<stop offset="1" stop-color="#08418B"/>
</linearGradient>
<linearGradient id="paint4_linear_24439_1279" x1="91.6762" y1="34.294" x2="41.9288" y2="60.6546" gradientUnits="userSpaceOnUse">
<stop stop-color="#78B5E3"/>
<stop offset="0.567559" stop-color="#0E55A9"/>
<stop offset="1" stop-color="#08418B"/>
</linearGradient>
<linearGradient id="paint5_linear_24439_1279" x1="108.394" y1="60.5" x2="154.825" y2="60.5" gradientUnits="userSpaceOnUse">
<stop stop-color="#C59D1D"/>
<stop offset="0.536518" stop-color="#EEC00D"/>
<stop offset="1" stop-color="#FCE16C"/>
</linearGradient>
<linearGradient id="paint6_linear_24439_1279" x1="326.091" y1="60.5" x2="372.522" y2="60.5" gradientUnits="userSpaceOnUse">
<stop stop-color="#C59D1D"/>
<stop offset="0.536518" stop-color="#EEC00D"/>
<stop offset="1" stop-color="#FCE16C"/>
</linearGradient>
<clipPath id="clip0_24439_1279">
<rect width="96.5522" height="87" fill="white"/>
</clipPath>
</defs>
</svg>
